# xmcd
#
# Track frame offsets: 
#        150
#        18235
#        37412
#        50315
#        67797
#        82465
#        100064
#        118927
#        135299
#        154196
#
# Disc length: 2269 seconds
#
# Revision: 0
# Processed by: cddbd v1.5.2PL0 Copyright (c) Steve Scherf et al.
# Submitted via: ExactAudioCopyFreeDBPlugin 1.0
#
DISCID=8208db0a
DTITLE=Kevin Ramessar - Acoustic Christmas
DYEAR=2007
DGENRE=Other
TTITLE0=Away in a Manger
TTITLE1=Good King Wenceslas
TTITLE2=The Holly and the Ivy
TTITLE3=God Rest You Merry, Gentlemen
TTITLE4=Silent Night
TTITLE5=Jesu, Joy of Man's Desiring
TTITLE6=What Child is This?
TTITLE7=Lo, How a Rose E'er Blooming
TTITLE8=O Come All Ye Faithful
TTITLE9=Auld Lang Syne
EXTD=
EXTT0=
EXTT1=
EXTT2=
EXTT3=
EXTT4=
EXTT5=
EXTT6=
EXTT7=
EXTT8=
EXTT9=
PLAYORDER=
